<svg width="120" height="120" viewBox="0 0 120 120" fill="none" xmlns="http://www.w3.org/2000/svg">
    <path fill-rule="evenodd" clip-rule="evenodd" d="M72.9638 66.3804C71.4812 71.5205 67.7797 76.2245 62.3816 79.1254C51.4281 85.0089 37.6009 81.5637 31.2806 71.3742C24.9507 61.1906 28.6555 48.3343 39.609 42.4535C45.0133 39.5499 51.2393 38.9235 56.8577 40.4368L62.5327 20.7251C51.4784 17.9677 39.3069 19.0683 28.6429 24.7939C7.32123 36.2451 -0.0251841 61.7408 12.2881 81.5725C24.6013 101.401 52.0135 108.233 73.3383 96.7851C84.0023 91.0596 91.1944 81.9442 94.1595 71.6611L72.9638 66.3804Z" fill="#262626"/>
    <path fill-rule="evenodd" clip-rule="evenodd" d="M100.482 45.3336C108.413 45.3336 114.844 39.3446 114.844 31.9563C114.844 24.5681 108.413 18.5762 100.482 18.5762C92.5496 18.5762 86.1191 24.5681 86.1191 31.9563C86.1191 39.3446 92.5496 45.3336 100.482 45.3336Z" fill="#12CEBE"/>
</svg>